<?xml version="1.0" standalone="no"?>
<!DOCTYPE svg PUBLIC "-//W3C//DTD SVG 20010904//EN"
 "http://www.w3.org/TR/2001/REC-SVG-20010904/DTD/svg10.dtd">
<svg version="1.0" xmlns="http://www.w3.org/2000/svg"
 width="250.000000pt" height="83.000000pt" viewBox="0 0 250.000000 83.000000"
 preserveAspectRatio="xMidYMid meet">
<metadata>
Created by potrace 1.15, written by Peter Selinger 2001-2017
</metadata>
<g transform="translate(0.000000,83.000000) scale(0.100000,-0.100000)"
fill="#000000" stroke="none">
<path d="M1060 696 c-189 -36 -392 -81 -630 -141 -366 -93 -423 -109 -428
-124 -4 -10 1 -12 19 -8 22 6 488 96 784 152 369 69 536 86 626 65 76 -18 143
-54 173 -93 l25 -33 123 -2 c133 -3 364 -26 413 -41 29 -9 28 -9 -14 -10 -82
-2 -161 -71 -161 -140 0 -36 42 -68 106 -82 77 -16 90 -29 31 -29 -33 0 -49 5
-53 15 -5 12 -17 14 -60 9 l-54 -7 0 32 c0 36 -37 77 -73 83 -12 2 2 8 31 12
32 5 52 13 52 21 0 51 -60 88 -141 88 -93 -1 -164 -52 -176 -128 -8 -47 26
-79 103 -96 77 -16 90 -29 31 -29 -33 0 -49 5 -53 15 -5 12 -17 14 -59 9 l-52
-6 4 48 c9 94 -73 191 -168 201 -58 6 -123 -28 -164 -86 -25 -35 -30 -52 -29
-99 0 -70 21 -113 76 -152 35 -25 50 -30 101 -30 70 0 115 23 152 78 20 30 25
33 25 16 0 -30 46 -72 93 -85 74 -20 182 11 224 65 l19 24 13 -29 c19 -43 64
-64 141 -63 110 1 190 58 190 134 0 56 -24 78 -103 94 -79 17 -96 26 -46 26
19 0 40 -5 46 -11 7 -7 29 -9 62 -4 42 6 51 11 51 26 0 11 -12 31 -27 45 l-26
24 40 -14 c109 -38 173 -86 173 -128 0 -28 -78 -100 -137 -128 -29 -14 -53
-30 -53 -37 0 -26 122 38 183 96 31 29 37 42 37 76 0 22 -7 51 -16 64 -40 56
-191 127 -346 162 -95 21 -334 48 -424 49 -44 0 -54 4 -83 34 -18 19 -61 47
-95 63 -57 26 -70 28 -206 30 -116 2 -170 -3 -270 -21z m467 -319 c7 -7 15
-27 19 -44 5 -26 1 -37 -19 -57 -32 -31 -56 -33 -91 -5 -35 27 -35 71 0 105
19 20 31 24 52 19 15 -3 33 -12 39 -18z"/>
<path d="M1196 580 c-40 -13 -71 -44 -86 -90 l-13 -40 -104 0 c-56 0 -103 -3
-103 -6 0 -3 11 -20 25 -38 14 -18 25 -38 25 -44 0 -8 23 -12 68 -12 l69 0
-18 -92 c-29 -146 -31 -139 48 -136 l67 3 18 90 c26 135 27 135 47 135 11 0
23 12 31 30 7 16 18 35 26 41 23 19 16 29 -22 29 -28 0 -35 3 -32 18 2 13 15
18 50 20 38 2 47 7 52 25 13 48 7 64 -25 71 -41 8 -87 6 -123 -4z"/>
<path d="M685 462 c-40 -19 -73 -50 -93 -87 -11 -18 -11 -18 -12 8 0 34 -40
77 -72 78 -43 2 -83 -3 -102 -13 -13 -7 -21 -7 -26 1 -4 8 -30 11 -70 9 l-64
-3 -33 -160 c-17 -88 -32 -163 -33 -167 0 -5 31 -8 69 -8 79 0 71 -11 96 120
18 88 35 120 67 120 22 0 23 -25 4 -112 -8 -35 -16 -78 -20 -95 l-5 -33 69 0
c79 0 72 -10 94 121 l13 74 5 -47 c11 -94 85 -158 182 -158 106 0 176 72 176
181 0 131 -133 224 -245 171z m139 -83 c26 -20 36 -69 18 -95 -13 -21 -54 -36
-79 -30 -53 14 -60 110 -10 134 32 15 41 14 71 -9z"/>
</g>
</svg>
